<svg width="132" height="131" viewBox="0 0 132 131" fill="none" xmlns="http://www.w3.org/2000/svg">
<path d="M95.9592 52.0095L106.133 34.3886C106.312 34.087 106.418 33.7201 106.418 33.3288C106.418 32.159 105.473 31.2134 104.303 31.2134C103.524 31.2134 102.844 31.6332 102.477 32.2609L102.473 32.2691L92.1725 50.1101C84.481 46.5761 75.485 44.5136 66.0081 44.5136C56.5312 44.5136 47.5353 46.5761 39.4443 50.2731L39.8437 50.1101L29.5435 32.265C29.1725 31.6291 28.4878 31.2052 27.7092 31.2052C26.5394 31.2052 25.5937 32.1509 25.5937 33.3207C25.5937 33.712 25.6997 34.0748 25.8831 34.3886L25.8791 34.3805L36.053 52.0014C18.5829 61.6495 6.5584 79.299 4.89944 99.871L4.88721 100.083H127.133C125.462 79.299 113.437 61.6495 96.2772 52.1563L95.9674 52.0014L95.9592 52.0095ZM37.8668 82.674C35.0543 82.674 32.7758 80.3954 32.7758 77.5829C32.7758 74.7704 35.0543 72.4919 37.8668 72.4919C40.6793 72.4919 42.9579 74.7704 42.9579 77.5829C42.9538 80.3913 40.6793 82.6699 37.8668 82.674ZM94.1331 82.674C91.3206 82.674 89.0421 80.3954 89.0421 77.5829C89.0421 74.7704 91.3206 72.4919 94.1331 72.4919C96.9456 72.4919 99.2242 74.7704 99.2242 77.5829C99.2201 80.3913 96.9456 82.6699 94.1331 82.674Z" fill="black"/>
</svg>
