<svg width="132" height="131" viewBox="0 0 132 131" fill="none" xmlns="http://www.w3.org/2000/svg">
<g clip-path="url(#clip0_43_67)">
<path d="M52.769 12.3274V17.9366H38.4258V0.5625H52.769V6.70975H44.573V12.3274H52.769ZM67.5135 6.70975H73.2435V0.5625H58.8987C58.8987 0.5625 58.8987 3.6481 58.8987 6.70975C60.8178 8.62882 61.8184 9.54747 64.594 12.323C62.9715 12.323 58.8987 12.3284 58.8987 12.3284V17.9366H73.2435V12.3274L67.5135 6.70975ZM87.8443 6.70975H93.5737V0.5625H79.2294C79.2294 0.5625 79.2294 3.6481 79.2294 6.70975C81.148 8.62882 82.1492 9.54747 84.9245 12.323C83.303 12.323 79.2294 12.3284 79.2294 12.3284V17.9366H93.574V12.3274L87.8443 6.70975ZM112.466 26.1937L103.753 120.577L65.9997 130.742L28.246 120.577L19.5339 26.1937H112.466ZM94.9089 45.3849H65.9656H36.5108L37.9193 56.7824H65.9656H67.541L65.9656 57.4382L38.9445 68.6925L39.8407 79.833L65.9656 79.9178L79.9677 79.9624L79.0707 94.8174L65.9656 98.5073V98.4956L65.8581 98.5251L53.2008 95.33L52.4327 86.1091H52.391H40.6506H40.6093L42.146 103.91L65.9656 110.954V110.941L66.0084 110.954L89.7007 104.039L92.7748 68.6928H65.9656H65.8994L65.9656 68.6642L93.7558 56.7827L94.9089 45.3849Z" fill="black"/>
</g>
<defs>
<clipPath id="clip0_43_67">
<rect width="130.435" height="130.435" fill="white" transform="translate(0.782593 0.434814)"/>
</clipPath>
</defs>
</svg>
