<svg width="132" height="132" viewBox="0 0 132 132" fill="none" xmlns="http://www.w3.org/2000/svg">
<path d="M90.6155 25.8464C86.0421 21.2894 81.4117 16.7934 76.6794 12.4035C75.3465 10.9565 73.4429 10.0516 71.3274 10.0516C71.2948 10.0516 71.2663 10.0516 71.2337 10.0516C69.5992 10.2105 68.1033 10.5611 66.6848 11.0828L66.8111 11.0421L37.2188 25.8383L90.6155 25.8464ZM29.2948 29.2948V89.2499C29.2541 89.5883 29.2296 89.9796 29.2296 90.3749C29.2296 92.9103 30.2201 95.2173 31.8342 96.9252L31.8302 96.9211L56.8655 121.952H100.272V100.268L29.2948 29.2948ZM25.8424 25.8383C25.8424 25.8383 51.5462 12.9945 64.394 6.56652C66.4158 5.5475 68.7962 4.95239 71.3193 4.95239C71.5312 4.95239 71.7473 4.95647 71.9592 4.96462H71.9307C75.216 5.61272 78.0978 7.01897 80.4946 8.99995L80.462 8.97549L127.048 55.5652V105.359H105.363V127.043H54.7622L8.9837 81.2649C6.55842 78.7703 5.03804 75.3831 4.96875 71.6372V71.6249C5.17663 69.5421 5.74728 67.6385 6.61957 65.9103L6.5788 66.004L25.8424 25.8383Z" fill="black"/>
</svg>
