<svg width="131" height="132" viewBox="0 0 131 132" fill="none" xmlns="http://www.w3.org/2000/svg">
<g clip-path="url(#clip0_43_70)">
<path d="M62.5123 0.652222H42.6635C31.7013 0.652222 22.8147 9.5388 22.8147 20.501C22.8147 31.4632 31.7013 40.3498 42.6635 40.3498H62.5123V0.652222Z" fill="black"/>
<path d="M68.1834 0.652222H88.0321C98.9943 0.652222 107.881 9.5388 107.881 20.501C107.881 31.4632 98.9943 40.3498 88.0321 40.3498H68.1834V0.652222Z" fill="black"/>
<path d="M62.5123 46.0209H42.6635C31.7013 46.0209 22.8147 54.9075 22.8147 65.8696C22.8147 76.8318 31.7013 85.7184 42.6635 85.7184H62.5123V46.0209Z" fill="black"/>
<path d="M62.5123 91.3894H42.6635C31.7013 91.3894 22.8147 100.276 22.8147 111.238C22.8147 122.2 31.7013 131.087 42.6635 131.087C53.6257 131.087 62.5123 122.2 62.5123 111.238V91.3894Z" fill="black"/>
<path d="M88.0321 85.7184C98.9943 85.7184 107.881 76.8318 107.881 65.8696C107.881 54.9075 98.9943 46.0209 88.0321 46.0209C77.0699 46.0209 68.1834 54.9075 68.1834 65.8696C68.1834 76.8318 77.0699 85.7184 88.0321 85.7184Z" fill="black"/>
</g>
<defs>
<clipPath id="clip0_43_70">
<rect width="130.435" height="130.435" fill="white" transform="translate(0.130432 0.652222)"/>
</clipPath>
</defs>
</svg>
