<svg width="44" height="43" viewBox="0 0 44 43" fill="none" xmlns="http://www.w3.org/2000/svg">
<g clip-path="url(#clip0_31_32)">
<path d="M22 0.509094C9.845 0.509094 0 9.90659 0 21.5091C0 30.8016 6.2975 38.6503 15.0425 41.4328C16.1425 41.6166 16.555 40.9866 16.555 40.4353C16.555 39.9366 16.5275 38.2828 16.5275 36.5241C11 37.4953 9.57 35.2378 9.13 34.0566C8.8825 33.4528 7.81 31.5891 6.875 31.0903C6.105 30.6966 5.005 29.7253 6.8475 29.6991C8.58 29.6728 9.8175 31.2216 10.23 31.8516C12.21 35.0278 15.3725 34.1353 16.6375 33.5841C16.83 32.2191 17.4075 31.3003 18.04 30.7753C13.145 30.2503 8.03 28.4391 8.03 20.4066C8.03 18.1228 8.8825 16.2328 10.285 14.7628C10.065 14.2378 9.295 12.0853 10.505 9.19784C10.505 9.19784 12.3475 8.6466 16.555 11.3503C18.315 10.8778 20.185 10.6416 22.055 10.6416C23.925 10.6416 25.795 10.8778 27.555 11.3503C31.7625 8.62034 33.605 9.19784 33.605 9.19784C34.815 12.0853 34.045 14.2378 33.825 14.7628C35.2275 16.2328 36.08 18.0966 36.08 20.4066C36.08 28.4653 30.9375 30.2503 26.0425 30.7753C26.84 31.4316 27.5275 32.6916 27.5275 34.6603C27.5275 37.4691 27.5 39.7266 27.5 40.4353C27.5 40.9866 27.9125 41.6428 29.0125 41.4328C33.3806 40.0265 37.1764 37.3475 39.8651 33.7732C42.5539 30.1989 44.0001 25.9094 44 21.5091C44 9.90659 34.155 0.509094 22 0.509094Z" fill="black"/>
</g>
<defs>
<clipPath id="clip0_31_32">
<rect width="44" height="42" fill="white" transform="translate(0 0.509094)"/>
</clipPath>
</defs>
</svg>
