<svg width="132" height="132" viewBox="0 0 132 132" fill="none" xmlns="http://www.w3.org/2000/svg">
<g clip-path="url(#clip0_43_42)">
<path d="M34.4432 46.014C22.8243 46.014 13.4053 55.4329 13.4053 67.0518C13.4053 78.6707 22.8243 88.0899 34.4432 88.0899C43.8632 88.0899 51.8371 81.8985 54.5179 73.3632H38.6507C35.1651 73.3632 32.3394 70.5375 32.3394 67.0518C32.3394 63.5662 35.1651 60.7405 38.6507 60.7405H64.4869C67.4411 45.167 81.1237 33.3912 97.5571 33.3912C116.147 33.3912 131.217 48.4616 131.217 67.0518C131.217 85.6418 116.147 100.713 97.5571 100.713C83.0959 100.713 70.7644 91.5929 66 78.7914C61.2357 91.5929 48.9044 100.713 34.4432 100.713C15.8529 100.713 0.782593 85.6418 0.782593 67.0518C0.782593 48.4616 15.8529 33.3912 34.4432 33.3912C41.107 33.3912 47.3363 35.3341 52.5727 38.6866C55.5083 40.566 56.3644 44.4694 54.485 47.405C52.6056 50.3406 48.7022 51.1967 45.7667 49.3173C42.5013 47.2267 38.6235 46.014 34.4432 46.014ZM97.5571 46.014C85.9378 46.014 76.5189 55.4329 76.5189 67.0518C76.5189 78.6707 85.9378 88.0899 97.5571 88.0899C109.176 88.0899 118.595 78.6707 118.595 67.0518C118.595 55.4329 109.176 46.014 97.5571 46.014Z" fill="black"/>
</g>
<defs>
<clipPath id="clip0_43_42">
<rect width="130.435" height="130.435" fill="white" transform="translate(0.782593 0.782593)"/>
</clipPath>
</defs>
</svg>
