<svg width="132" height="132" viewBox="0 0 132 132" fill="none" xmlns="http://www.w3.org/2000/svg">
<g clip-path="url(#clip0_43_64)">
<path d="M28.4666 0.779907H34.3341V6.57712H39.7016V0.779907H45.5696V18.3348H39.7021V12.4561H34.3346V18.3348H28.4671V0.779907H28.4666ZM53.2854 6.60158H48.1202V0.779907H64.3211V6.60158H59.1534V18.3348H53.2859V6.60158H53.2854ZM66.8921 0.779907H73.0114L76.7743 6.9483L80.5343 0.779907H86.6543V18.3348H80.8107V9.63393L76.7741 15.8754H76.6735L72.6341 9.63393V18.3348H66.8921V0.779907ZM89.575 0.779907H95.4441V12.5325H103.696V18.3348H89.575V0.779907ZM19.8859 26.3637L28.2791 120.504L65.9432 130.959L103.712 120.489L112.114 26.3635L19.8859 26.3637ZM94.6062 48.7042L94.0807 54.5578L93.8498 57.1532H93.8119H66H65.9597H49.6666L50.7218 68.9756H65.9597H66H89.6871H92.7987L92.517 72.0765L89.8038 102.474L89.6301 104.423L66 110.973V110.975L65.947 110.99L42.2957 104.424L40.6778 86.2952H46.02H52.2684L53.0905 95.5036L65.949 98.9764L65.9597 98.9731V98.9721L78.8379 95.4972L80.1771 80.5224H66H65.9597H40.1622L37.3244 48.7042L37.048 45.6072H65.9597H66H94.8826L94.6062 48.7042Z" fill="black"/>
</g>
<defs>
<clipPath id="clip0_43_64">
<rect width="130.435" height="130.435" fill="white" transform="translate(0.782593 0.652222)"/>
</clipPath>
</defs>
</svg>
