<svg width="132" height="131" viewBox="0 0 132 131" fill="none" xmlns="http://www.w3.org/2000/svg">
<g clip-path="url(#clip0_43_76)">
<path d="M109.393 0.562134H22.6067C10.6735 0.562134 0.909973 10.3256 0.909973 22.2589V109.046C0.909973 120.979 10.6735 130.742 22.6067 130.742H109.394C121.327 130.742 131.09 120.979 131.09 109.046V22.2589C131.09 10.3256 121.326 0.562134 109.393 0.562134ZM63.2815 66.8047C58.7631 71.323 51.6618 73.4449 43.6391 73.4449C41.518 73.4449 39.5816 73.3519 38.1058 73.0752V96.4987H26.8561V35.174C30.9135 34.4365 36.5391 33.8826 44.1922 33.8826C52.4926 33.8826 58.579 35.6348 62.5445 38.9551C66.2333 41.9986 68.6306 46.8858 68.6306 52.6955C68.6303 58.5977 66.7862 63.4847 63.2815 66.8047ZM86.8851 97.4217C81.444 97.4217 76.5568 96.1303 73.2368 94.2856L75.4499 86.0784C78.0318 87.6462 82.9198 89.3064 86.9773 89.3064C91.9565 89.3064 94.1706 87.2776 94.1706 84.3262C94.1706 81.2837 92.3264 79.7154 86.7929 77.779C78.0316 74.7355 74.344 69.9404 74.436 64.6838C74.436 56.753 80.9832 50.5747 91.4037 50.5747C96.3839 50.5747 100.718 51.8661 103.299 53.2486L101.086 61.2716C99.1498 60.1655 95.5529 58.6897 91.5879 58.6897C87.5301 58.6897 85.3171 60.6263 85.3171 63.3925C85.3171 66.2518 87.4382 67.6354 93.1559 69.664C101.271 72.6146 105.052 76.7643 105.144 83.4048C105.144 91.5198 98.7814 97.4217 86.8851 97.4217ZM57.2874 53.1564C57.2874 60.4419 52.1227 64.5916 43.6391 64.5916C41.3338 64.5916 39.4894 64.4994 38.1058 64.1307V43.1048C39.3052 42.8284 41.5182 42.5517 44.654 42.5517C52.4926 42.5517 57.2874 46.2405 57.2874 53.1564Z" fill="black"/>
</g>
<defs>
<clipPath id="clip0_43_76">
<rect width="130.435" height="130.435" fill="white" transform="translate(0.782593 0.434814)"/>
</clipPath>
</defs>
</svg>
